<?xml version="1.0" encoding="iso-8859-1"?>
<!-- Generator: Adobe Illustrator 19.0.0, SVG Export Plug-In . SVG Version: 6.00 Build 0)  -->
<svg version="1.1" id="Layer_1" xmlns="http://www.w3.org/2000/svg" xmlns:xlink="http://www.w3.org/1999/xlink" x="0px" y="0px"
	 viewBox="0 0 490.001 490.001" style="enable-background:new 0 0 490.001 490.001;" xml:space="preserve">
<g>
	<path style="fill:#FFC843;" d="M94.496,340.848l8.124-5.808c4.476-3.199,5.523-9.482,2.327-13.96l-21.659-30.346
		c-3.196-4.479-9.473-5.524-13.949-2.325l-8.125,5.808L94.496,340.848z"/>
	<ellipse style="fill:#FFC843;" cx="95.623" cy="82.868" rx="48.306" ry="48.283"/>
	<path style="fill:#FFB400;" d="M78.44,82.868c0-21.222,13.704-39.232,32.745-45.708c-4.885-1.661-10.115-2.575-15.562-2.575
		c-26.679,0-48.307,21.618-48.307,48.283c0,26.666,21.627,48.283,48.307,48.283c5.447,0,10.677-0.914,15.562-2.576
		C92.144,122.1,78.44,104.09,78.44,82.868z"/>
	<path style="fill:#76FFD9;" d="M96.49,376.674v43.005c8.813-3.794,17.95-7.072,27.341-9.802v-33.203H96.49z"/>
	<path style="fill:#5DE0BF;" d="M109.909,414.386v-37.712H96.49v43.005C100.887,417.787,105.359,416.017,109.909,414.386z"/>
	<path style="fill:#76FFD9;" d="M234.416,376.674v26.64c9.294,1.515,18.428,3.536,27.341,6.052v-32.691H234.416z"/>
	<path style="fill:#5DE0BF;" d="M234.416,376.674v26.64c4.512,0.735,8.989,1.581,13.419,2.556v-29.195H234.416z"/>
	<path style="fill:#76FFD9;" d="M338.411,415.28v-84.251c0-2.751-2.251-5.001-5.001-5.001h-18.006c-2.751,0-5.002,2.25-5.002,5.001
		v94.951C319.266,421.025,328.682,417.421,338.411,415.28z"/>
	<path style="fill:#FFC843;" d="M442.477,455.417c-21.313-26.988-51.491-42.43-83.127-42.43c-23.413,0-46.031,8.453-64.848,23.786
		l-10.84,18.644H442.477z"/>
	<path style="fill:#FFC843;" d="M347.546,455.417c-39.337-35.222-95.298-55.402-153.853-55.402
		c-58.555,0-114.516,20.181-153.853,55.402H347.546z"/>
	<path style="fill:#FFA816;" d="M193.693,400.014c-58.555,0-114.516,20.181-153.853,55.402h41.576
		c34.651-31.026,82.204-50.372,133.065-54.544C207.603,400.309,200.668,400.014,193.693,400.014z"/>
	<path style="fill:#76FFD9;" d="M283.409,371.673c0,2.751-2.251,5.002-5.001,5.002H87.396c-2.751,0-6.309-1.832-7.907-4.07
		l-48.556-68.032c-1.598-2.238-1.075-5.38,1.163-6.979l16.808-12.014c2.237-1.601,5.376-1.078,6.974,1.161l39.387,55.185
		c1.598,2.239,5.157,4.07,7.908,4.07h175.236c2.75,0,5.001,2.251,5.001,5.002V371.673z"/>
	<path style="fill:#5DE0BF;" d="M100.372,372.604l-48.556-68.032c-1.598-2.238-1.075-5.38,1.163-6.979l7.049-5.039l-4.149-5.813
		c-1.598-2.239-4.737-2.762-6.974-1.161l-16.808,12.014c-2.238,1.6-2.761,4.741-1.163,6.979l48.556,68.032
		c1.598,2.238,5.156,4.07,7.907,4.07h20.883C105.528,376.674,101.97,374.842,100.372,372.604z"/>
	<path style="fill:#FFC843;" d="M423.052,233.304c-1.692,0-3.217-1.025-3.857-2.593c-4.816-11.802-16.209-19.428-29.023-19.428
		c-12.816,0-24.209,7.626-29.025,19.428c-0.641,1.567-2.165,2.593-3.857,2.593c-1.693,0-3.217-1.023-3.858-2.593
		c-4.816-11.802-16.209-19.428-29.025-19.428c-12.814,0-24.207,7.626-29.023,19.428c-0.641,1.567-2.164,2.593-3.856,2.593
		s-3.218-1.025-3.858-2.593c-4.816-11.802-16.209-19.428-29.024-19.428c-12.816,0-24.209,7.626-29.025,19.428
		c-0.64,1.567-2.165,2.593-3.857,2.593c-1.693,0-3.217-1.023-3.857-2.593c-4.816-11.802-16.209-19.428-29.024-19.428
		c-7.189,0-14.213,2.484-19.778,6.992c-0.759,0.615-1.688,0.929-2.623,0.929c-0.687,0-1.379-0.17-2.008-0.517
		c-1.483-0.815-2.326-2.453-2.129-4.136c9.348-80.173,77.301-140.629,158.064-140.629c80.766,0,148.717,60.456,158.065,140.629
		c0.196,1.683-0.646,3.32-2.129,4.136c-0.629,0.347-1.321,0.517-2.009,0.517c-0.936,0-1.864-0.313-2.623-0.929
		c-5.563-4.508-12.588-6.992-19.777-6.992c-12.815,0-24.208,7.626-29.024,19.428C426.269,232.279,424.745,233.304,423.052,233.304
		L423.052,233.304z"/>
	<path style="fill:#FFB400;" d="M334.749,74.263c-3.422-0.22-6.87-0.34-10.343-0.34c-80.763,0-148.716,60.456-158.064,140.629
		c-0.197,1.683,0.646,3.32,2.129,4.136c0.629,0.347,1.321,0.517,2.008,0.517c0.936,0,1.864-0.313,2.623-0.929
		c4.132-3.348,9.07-5.576,14.283-6.504C197.502,136.416,259.518,79.108,334.749,74.263z"/>
	<path style="fill:#FFFFFF;" d="M320.096,77.001c-50.441,0-92.915,67.978-99.096,158.334c0.149,0.017,0.299,0.034,0.451,0.034
		c1.692,0,3.217-1.025,3.857-2.593c4.816-11.802,16.209-19.428,29.025-19.428c12.815,0,24.208,7.626,29.024,19.428
		c0.641,1.567,2.166,2.593,3.858,2.593c1.692,0,3.216-1.025,3.856-2.593c4.816-11.802,16.209-19.428,29.023-19.428
		c12.816,0,24.209,7.626,29.025,19.428c0.641,1.569,2.164,2.593,3.857,2.593c1.692,0,3.217-1.025,3.857-2.593
		c4.816-11.802,16.209-19.428,29.025-19.428c12.814,0,24.207,7.626,29.023,19.428c0.64,1.567,2.164,2.593,3.856,2.593
		c0.153,0,0.302-0.018,0.452-0.034C413.012,144.978,370.538,77.001,320.096,77.001z"/>
	<path style="fill:#FFC843;" d="M320.778,75.066c-13.708,8.653-24.768,65.723-26.402,139.486l-1.404,18.481
		c1.072-0.399,1.961-1.223,2.411-2.322c4.816-11.802,16.209-19.428,29.023-19.428c12.816,0,24.209,7.626,29.025,19.428
		c0.196,0.479,0.482,0.9,0.822,1.264l0.184-17.423c-1.633-73.764-12.694-130.833-26.402-139.486c-1.206-0.078-2.414-0.13-3.629-0.13
		C323.191,74.936,321.983,74.988,320.778,75.066z"/>
	<path style="fill:#434C54;" d="M95.623,138.651c30.772,0,55.806-25.024,55.806-55.783s-25.035-55.783-55.806-55.783
		c-30.772,0-55.807,25.024-55.807,55.783S64.852,138.651,95.623,138.651z M95.623,42.085c22.501,0,40.806,18.295,40.806,40.783
		s-18.306,40.783-40.806,40.783c-22.501,0-40.807-18.295-40.807-40.783S73.123,42.085,95.623,42.085z"/>
	<circle style="fill:#434C54;" cx="124.538" cy="430.562" r="7.502"/>
	<circle style="fill:#434C54;" cx="182.056" cy="430.562" r="7.502"/>
	<circle style="fill:#434C54;" cx="237.574" cy="430.562" r="7.502"/>
	<circle style="fill:#434C54;" cx="371.617" cy="436.065" r="7.502"/>
	<path style="fill:#434C54;" d="M346.488,233.547c1.8,4.409,6.039,7.258,10.801,7.258c4.759,0,8.999-2.848,10.801-7.259
		c3.66-8.968,12.327-14.762,22.082-14.762c9.753,0,18.42,5.794,22.08,14.762c1.799,4.409,6.039,7.259,10.8,7.259
		c4.762,0,9.002-2.85,10.801-7.259c3.66-8.968,12.327-14.762,22.081-14.762c5.475,0,10.822,1.889,15.054,5.318
		c2.07,1.678,4.68,2.603,7.347,2.603c1.964,0,3.91-0.501,5.622-1.444c4.176-2.296,6.518-6.84,5.965-11.577
		c-9.498-81.457-76.773-143.476-158.015-147.089v-5.913c0-4.143-3.358-7.5-7.5-7.5c-4.142,0-7.5,3.357-7.5,7.5v5.913
		c-81.243,3.613-148.516,65.632-158.013,147.087c-0.554,4.737,1.788,9.282,5.958,11.575c1.719,0.947,3.666,1.448,5.629,1.448
		c2.667,0,5.276-0.925,7.344-2.601c4.234-3.431,9.582-5.32,15.057-5.32c9.754,0,18.421,5.794,22.079,14.759
		c1.798,4.411,6.038,7.262,10.802,7.262c4.762,0,9.001-2.85,10.801-7.259c3.659-8.968,12.326-14.762,22.081-14.762
		c9.754,0,18.421,5.794,22.082,14.766c1.801,4.407,6.041,7.255,10.801,7.255c4.759,0,8.997-2.848,10.8-7.259
		c2.683-6.573,8.061-11.43,14.58-13.56v98.543h-1.502c-6.894,0-12.502,5.608-12.502,12.501v85.909
		c-10.735-5.173-21.994-9.578-33.644-13.158v-19.606h9.15c6.893,0,12.501-5.608,12.501-12.502v-20.676
		c0-6.894-5.608-12.502-12.501-12.502H259c-4.142,0-7.5,3.357-7.5,7.5c0,4.143,3.358,7.5,7.5,7.5h16.909v15.68l-188.446,0.002
		c-0.505-0.05-1.576-0.601-1.869-0.93l-47.108-66.003l12.743-9.107l37.932,53.145c2.983,4.181,8.876,7.214,14.012,7.214H231
		c4.142,0,7.5-3.357,7.5-7.5c0-4.143-3.358-7.5-7.5-7.5l-121.102,0.002c5.285-5.97,5.978-15.016,1.153-21.773l-21.659-30.345
		c-3.272-4.586-8.604-7.323-14.262-7.323c-3.665,0-7.176,1.125-10.153,3.253l-2.019,1.443l-0.977-1.368
		c-1.938-2.716-4.821-4.513-8.12-5.063c-3.301-0.546-6.61,0.218-9.32,2.156l-16.808,12.014c-5.607,4.008-6.91,11.831-2.906,17.439
		l48.557,68.033c2.984,4.179,8.876,7.212,14.011,7.212h1.594v30.65c-19.137,8.717-36.704,19.837-51.96,33.092H7.5
		c-4.142,0-7.5,3.357-7.5,7.5c0,4.143,3.358,7.5,7.5,7.5H143c4.142,0,7.5-3.357,7.5-7.5c0-4.143-3.358-7.5-7.5-7.5H61.276
		c8.017-5.694,16.554-10.839,25.515-15.401c0.86,3.195,3.769,5.55,7.236,5.55c4.144,0,7.503-3.358,7.503-7.503
		c0-1.596-0.502-3.071-1.351-4.287c13.743-5.858,28.298-10.425,43.371-13.582c0.074,4.08,3.398,7.366,7.496,7.366
		c4.144,0,7.502-3.358,7.502-7.503c0-0.86-0.152-1.685-0.419-2.454c10.458-1.53,21.108-2.392,31.855-2.554
		c-1.194,1.329-1.927,3.081-1.927,5.008c0,4.145,3.359,7.503,7.503,7.503c4.143,0,7.502-3.358,7.502-7.503
		c0-1.884-0.699-3.601-1.845-4.917c14.046,0.429,27.906,2.049,41.364,4.793c0,0.042-0.006,0.082-0.006,0.124
		c0,4.145,3.359,7.503,7.503,7.503c2.981,0,5.547-1.742,6.758-4.261c7.98,2.144,15.783,4.693,23.363,7.625
		c-1.007,1.277-1.612,2.886-1.612,4.638c0,4.145,3.358,7.503,7.503,7.503c3.798,0,6.93-2.825,7.426-6.489
		c11.562,5.365,22.493,11.666,32.595,18.842H171c-4.142,0-7.5,3.357-7.5,7.5c0,4.143,3.358,7.5,7.5,7.5h305.521
		c4.142,0,7.5-3.357,7.5-7.5c0-4.143-3.358-7.5-7.5-7.5h-30.479c-22.584-27.011-53.984-42.43-86.692-42.43
		c-4.518,0-9.002,0.289-13.439,0.858v-12.345c0-4.143-3.358-7.5-7.5-7.5s-7.5,3.357-7.5,7.5v15.401
		c-4.411,1.233-8.752,2.754-13.009,4.556v-80.43h13.009v33.473c0,4.143,3.358,7.5,7.5,7.5s7.5-3.357,7.5-7.5v-35.972
		c0-6.893-5.608-12.501-12.501-12.501h-1.504v-98.544C338.426,222.115,343.805,226.972,346.488,233.547z M73.701,294.511
		c0.527-0.377,1.069-0.456,1.431-0.456c0.822,0,1.589,0.388,2.053,1.037l21.659,30.346c0.791,1.106,0.523,2.71-0.583,3.501
		l-2.019,1.442l-24.568-34.421L73.701,294.511z M116.331,404.339c-4.168,1.316-8.282,2.742-12.341,4.267v-24.431h12.341V404.339z
		 M226.917,394.642c-10.93-1.405-22.036-2.128-33.224-2.128c-21.304,0-42.306,2.621-62.361,7.604v-15.944h95.585V394.642z
		 M254.258,399.668c-4.076-0.981-8.194-1.854-12.341-2.637v-12.857h12.341V399.668z M339.339,422.734
		c-0.147,0.586-0.233,1.195-0.233,1.826c0,4.145,3.358,7.503,7.503,7.503c4.143,0,7.502-3.358,7.502-7.503
		c0-1.408-0.396-2.722-1.07-3.848c2.094-0.146,4.197-0.226,6.309-0.226c10.681,0,21.217,1.933,31.259,5.608
		c-0.929,1.249-1.485,2.791-1.485,4.468c0,4.145,3.358,7.503,7.502,7.503c3.592,0,6.589-2.525,7.325-5.897
		c7.662,4.205,14.901,9.482,21.53,15.748h-75.124c-8.403-7.301-17.511-13.95-27.192-19.911
		C328.423,425.743,333.83,423.984,339.339,422.734z M324.406,203.784c-8.254,0-16.025,2.569-22.431,7.08
		c-5.726,4.293-9.538,11.543-9.538,11.543s-3.571-4.384-5.412-6.384c-7.19-7.682-17.362-12.239-28.382-12.239
		c-8.735,0-16.928,2.875-23.535,7.888c-8.65,7.287-9.796,10.017-9.796,10.017s-0.062-1.688-5.694-7.318
		c-7.056-6.678-16.533-10.586-26.738-10.586c-6.318,0-12.534,1.55-18.078,4.448c9.068-54.992,47.293-99.261,97.578-117.624
		c32.37-10.607,46.078-9.878,52.027-9.941c6.593-0.069,21.76,2,52.238,10.02c50.18,18.411,88.31,62.631,97.366,117.545
		c-5.542-2.898-11.759-4.448-18.077-4.448c-10.201,0-19.675,3.905-26.73,10.578c-4.172,4.264-5.797,6.826-5.797,6.826
		s-4.213-5.5-9.699-9.516c-6.607-5.014-14.8-7.889-23.535-7.889c-10.93,0-21.18,4.213-28.359,11.779
		c-4.222,4.881-5.469,6.219-5.469,6.219s-1.935-4.531-9.506-10.918C340.432,206.353,332.661,203.784,324.406,203.784z"/>
</g>
<g>
</g>
<g>
</g>
<g>
</g>
<g>
</g>
<g>
</g>
<g>
</g>
<g>
</g>
<g>
</g>
<g>
</g>
<g>
</g>
<g>
</g>
<g>
</g>
<g>
</g>
<g>
</g>
<g>
</g>
</svg>
